<svg width="1454" height="1454" viewBox="0 0 1454 1454" fill="none" xmlns="http://www.w3.org/2000/svg">
<g filter="url(#filter0_b_4992_170403)">
<rect width="1454" height="1454" rx="186" fill="url(#paint0_linear_4992_170403)" fill-opacity="0.3"/>
</g>
<circle cx="727" cy="727" r="653" fill="#FBFBFB"/>
<rect opacity="0.24" x="678.047" y="161.513" width="20.8561" height="50.4938" rx="10.4281" transform="rotate(174 678.047 161.513)" fill="#2B2929"/>
<rect opacity="0.24" x="619.211" y="169.727" width="20.8561" height="50.4938" rx="10.4281" transform="rotate(168 619.211 169.727)" fill="#2B2929"/>
<rect opacity="0.24" x="561.547" y="184.047" width="20.8561" height="50.4938" rx="10.4281" transform="rotate(162 561.547 184.047)" fill="#2B2929"/>
<rect opacity="0.24" x="505.703" y="204.315" width="20.8561" height="50.4938" rx="10.4281" transform="rotate(156 505.703 204.315)" fill="#2B2929"/>
<rect opacity="0.24" x="401.867" y="261.748" width="20.8561" height="50.4938" rx="10.4281" transform="rotate(144 401.867 261.748)" fill="#2B2929"/>
<rect opacity="0.24" x="355.016" y="298.283" width="20.8561" height="50.4938" rx="10.4281" transform="rotate(138 355.016 298.283)" fill="#2B2929"/>
<rect opacity="0.24" x="312.242" y="339.515" width="20.8561" height="50.4938" rx="10.4281" transform="rotate(132 312.242 339.515)" fill="#2B2929"/>
<rect opacity="0.24" x="274.008" y="384.992" width="20.8561" height="50.4938" rx="10.4281" transform="rotate(126 274.008 384.992)" fill="#2B2929"/>
<rect opacity="0.24" x="212.797" y="486.647" width="20.8561" height="50.4938" rx="10.4281" transform="rotate(114 212.797 486.647)" fill="#2B2929"/>
<rect opacity="0.24" x="190.492" y="541.713" width="20.8561" height="50.4938" rx="10.4281" transform="rotate(108 190.492 541.713)" fill="#2B2929"/>
<rect opacity="0.24" x="174.062" y="598.809" width="20.8561" height="50.4938" rx="10.4281" transform="rotate(102 174.062 598.809)" fill="#2B2929"/>
<rect opacity="0.24" x="163.695" y="657.309" width="20.8561" height="50.4938" rx="10.4281" transform="rotate(96 163.695 657.309)" fill="#2B2929"/>
<rect opacity="0.24" x="161.516" y="775.949" width="20.8561" height="50.4938" rx="10.4281" transform="rotate(84 161.516 775.949)" fill="#2B2929"/>
<rect opacity="0.24" x="169.727" y="834.791" width="20.8561" height="50.4938" rx="10.4281" transform="rotate(78 169.727 834.791)" fill="#2B2929"/>
<rect opacity="0.24" x="184.047" y="892.451" width="20.8561" height="50.4938" rx="10.4281" transform="rotate(72 184.047 892.451)" fill="#2B2929"/>
<rect opacity="0.24" x="204.312" y="948.299" width="20.8561" height="50.4938" rx="10.4281" transform="rotate(66 204.312 948.299)" fill="#2B2929"/>
<rect opacity="0.24" x="261.75" y="1052.14" width="20.8561" height="50.4938" rx="10.4281" transform="rotate(54 261.75 1052.14)" fill="#2B2929"/>
<rect opacity="0.24" x="298.281" y="1098.99" width="20.8561" height="50.4938" rx="10.4281" transform="rotate(48 298.281 1098.99)" fill="#2B2929"/>
<rect opacity="0.24" x="339.516" y="1141.76" width="20.8561" height="50.4938" rx="10.4281" transform="rotate(42 339.516 1141.76)" fill="#2B2929"/>
<rect opacity="0.24" x="384.992" y="1179.99" width="20.8561" height="50.4938" rx="10.4281" transform="rotate(36 384.992 1179.99)" fill="#2B2929"/>
<rect opacity="0.24" x="486.648" y="1241.2" width="20.8561" height="50.4938" rx="10.4281" transform="rotate(24 486.648 1241.2)" fill="#2B2929"/>
<rect opacity="0.24" x="541.711" y="1263.51" width="20.8561" height="50.4938" rx="10.4281" transform="rotate(18 541.711 1263.51)" fill="#2B2929"/>
<rect opacity="0.24" x="598.812" y="1279.94" width="20.8561" height="50.4938" rx="10.4281" transform="rotate(12 598.812 1279.94)" fill="#2B2929"/>
<rect opacity="0.24" x="657.305" y="1290.31" width="20.8561" height="50.4938" rx="10.4281" transform="rotate(6 657.305 1290.31)" fill="#2B2929"/>
<rect opacity="0.24" x="775.953" y="1292.49" width="20.8561" height="50.4938" rx="10.4281" transform="rotate(-6 775.953 1292.49)" fill="#2B2929"/>
<rect opacity="0.24" x="834.789" y="1284.27" width="20.8561" height="50.4938" rx="10.4281" transform="rotate(-12 834.789 1284.27)" fill="#2B2929"/>
<rect opacity="0.24" x="892.453" y="1269.95" width="20.8561" height="50.4938" rx="10.4281" transform="rotate(-18 892.453 1269.95)" fill="#2B2929"/>
<rect opacity="0.24" x="948.297" y="1249.68" width="20.8561" height="50.4938" rx="10.4281" transform="rotate(-24 948.297 1249.68)" fill="#2B2929"/>
<rect opacity="0.24" x="1052.13" y="1192.25" width="20.8561" height="50.4938" rx="10.4281" transform="rotate(-36 1052.13 1192.25)" fill="#2B2929"/>
<rect opacity="0.24" x="1098.98" y="1155.72" width="20.8561" height="50.4938" rx="10.4281" transform="rotate(-42 1098.98 1155.72)" fill="#2B2929"/>
<rect opacity="0.24" x="1141.76" y="1114.49" width="20.8561" height="50.4938" rx="10.4281" transform="rotate(-48 1141.76 1114.49)" fill="#2B2929"/>
<rect opacity="0.24" x="1179.99" y="1069.01" width="20.8561" height="50.4938" rx="10.4281" transform="rotate(-54 1179.99 1069.01)" fill="#2B2929"/>
<rect opacity="0.24" x="1241.2" y="967.353" width="20.8561" height="50.4938" rx="10.4281" transform="rotate(-66 1241.2 967.353)" fill="#2B2929"/>
<rect opacity="0.24" x="1263.51" y="912.287" width="20.8561" height="50.4938" rx="10.4281" transform="rotate(-72 1263.51 912.287)" fill="#2B2929"/>
<rect opacity="0.24" x="1279.94" y="855.191" width="20.8561" height="50.4938" rx="10.4281" transform="rotate(-78 1279.94 855.191)" fill="#2B2929"/>
<rect opacity="0.24" x="1290.3" y="796.691" width="20.8561" height="50.4938" rx="10.4281" transform="rotate(-84 1290.3 796.691)" fill="#2B2929"/>
<rect opacity="0.24" x="1292.48" y="678.051" width="20.8561" height="50.4938" rx="10.4281" transform="rotate(-96 1292.48 678.051)" fill="#2B2929"/>
<rect opacity="0.24" x="1284.27" y="619.209" width="20.8561" height="50.4938" rx="10.4281" transform="rotate(-102 1284.27 619.209)" fill="#2B2929"/>
<rect opacity="0.24" x="1269.95" y="561.549" width="20.8561" height="50.4938" rx="10.4281" transform="rotate(-108 1269.95 561.549)" fill="#2B2929"/>
<rect opacity="0.24" x="1249.69" y="505.701" width="20.8561" height="50.4938" rx="10.4281" transform="rotate(-114 1249.69 505.701)" fill="#2B2929"/>
<rect opacity="0.24" x="1192.25" y="401.864" width="20.8561" height="50.4938" rx="10.4281" transform="rotate(-126 1192.25 401.864)" fill="#2B2929"/>
<rect opacity="0.24" x="1155.72" y="355.014" width="20.8561" height="50.4938" rx="10.4281" transform="rotate(-132 1155.72 355.014)" fill="#2B2929"/>
<rect opacity="0.24" x="1114.48" y="312.238" width="20.8561" height="50.4938" rx="10.4281" transform="rotate(-138 1114.48 312.238)" fill="#2B2929"/>
<rect opacity="0.24" x="1069.01" y="274.007" width="20.8561" height="50.4938" rx="10.4281" transform="rotate(-144 1069.01 274.007)" fill="#2B2929"/>
<rect opacity="0.24" x="967.352" y="212.799" width="20.8561" height="50.4938" rx="10.4281" transform="rotate(-156 967.352 212.799)" fill="#2B2929"/>
<rect opacity="0.24" x="912.289" y="190.492" width="20.8561" height="50.4938" rx="10.4281" transform="rotate(-162 912.289 190.492)" fill="#2B2929"/>
<rect opacity="0.24" x="855.188" y="174.063" width="20.8561" height="50.4938" rx="10.4281" transform="rotate(-168 855.188 174.063)" fill="#2B2929"/>
<rect opacity="0.24" x="796.695" y="163.692" width="20.8561" height="50.4938" rx="10.4281" transform="rotate(-174 796.695 163.692)" fill="#2B2929"/>
<rect x="737.43" y="159.494" width="20.8561" height="50.4938" rx="10.4281" transform="rotate(-180 737.43 159.494)" fill="#2B2929"/>
<rect x="159.492" y="716.572" width="20.8561" height="50.4938" rx="10.4281" transform="rotate(90 159.492 716.572)" fill="#2B2929"/>
<rect x="716.57" y="1294.51" width="20.8561" height="50.4938" rx="10.4281" fill="#2B2929"/>
<rect x="1294.51" y="737.428" width="20.8561" height="50.4938" rx="10.4281" transform="rotate(-90 1294.51 737.428)" fill="#2B2929"/>
<rect x="452.281" y="230.311" width="20.8561" height="50.4938" rx="10.4281" transform="rotate(150 452.281 230.311)" fill="#2B2929"/>
<rect x="240.742" y="434.216" width="20.8561" height="50.4938" rx="10.4281" transform="rotate(120 240.742 434.216)" fill="#2B2929"/>
<rect x="230.312" y="1001.72" width="20.8561" height="50.4938" rx="10.4281" transform="rotate(60 230.312 1001.72)" fill="#2B2929"/>
<rect x="434.219" y="1213.26" width="20.8561" height="50.4938" rx="10.4281" transform="rotate(30 434.219 1213.26)" fill="#2B2929"/>
<rect x="1001.73" y="1223.69" width="20.8561" height="50.4938" rx="10.4281" transform="rotate(-30 1001.73 1223.69)" fill="#2B2929"/>
<rect x="1213.27" y="1019.78" width="20.8561" height="50.4938" rx="10.4281" transform="rotate(-60 1213.27 1019.78)" fill="#2B2929"/>
<rect x="1223.7" y="452.277" width="20.8561" height="50.4938" rx="10.4281" transform="rotate(-120 1223.7 452.277)" fill="#2B2929"/>
<rect x="1019.79" y="240.739" width="20.8561" height="50.4938" rx="10.4281" transform="rotate(-150 1019.79 240.739)" fill="#2B2929"/>
<path d="M692.135 298.396C686.898 298.396 683.268 294.766 683.268 289.319V213.7H682.918L666.649 225.011C664.904 226.268 663.507 226.757 661.552 226.757C657.782 226.757 655.059 224.034 655.059 220.054C655.059 217.261 656.176 215.166 659.178 213.071L679.776 198.618C684.245 195.476 687.038 194.847 690.809 194.847C697.163 194.847 701.003 198.688 701.003 204.902V289.319C701.003 294.766 697.372 298.396 692.135 298.396ZM732.982 297C727.396 297 724.464 293.928 724.464 289.389C724.464 285.898 725.651 283.803 729.491 280.172L760.284 249.659C773.131 236.951 776.343 231.854 776.343 224.173C776.343 215.166 769.431 208.672 759.725 208.672C750.648 208.672 744.294 213.281 740.733 222.358C738.917 225.989 736.823 227.874 732.703 227.874C727.815 227.874 724.883 224.872 724.883 220.403C724.883 219.076 725.092 217.819 725.441 216.632C728.165 205.74 740.244 194.219 759.865 194.219C780.044 194.219 793.939 206.159 793.939 223.056C793.939 234.856 788.283 242.816 771.595 259.155L748.483 281.918V282.267H788.702C793.45 282.267 796.383 285.2 796.383 289.668C796.383 294.067 793.45 297 788.702 297H732.982Z" fill="black"/>
<path d="M727.815 1263.02C712.105 1263.02 699.676 1255.34 692.694 1240.61C688.993 1232.86 687.108 1223.23 687.108 1211.77C687.108 1178.19 702.469 1158.15 728.095 1158.15C743.456 1158.15 755.187 1164.85 760.214 1174.42C761.331 1176.44 761.82 1178.19 761.82 1180.14C761.82 1184.26 758.887 1187.41 754.139 1187.41C750.578 1187.41 748.344 1185.73 745.551 1182.17C740.873 1175.74 735.496 1172.81 728.025 1172.81C712.803 1172.81 704.704 1186.85 704.354 1210.03V1211.08H704.704C708.684 1201.79 718.738 1194.81 732.424 1194.81C751.835 1194.81 765.451 1208.77 765.451 1227.83C765.451 1248.29 749.601 1263.02 727.815 1263.02ZM727.536 1248.36C738.778 1248.36 747.715 1239.56 747.715 1228.53C747.785 1216.94 739.336 1208.7 727.746 1208.7C716.155 1208.7 707.427 1216.94 707.427 1228.18C707.427 1239.49 716.294 1248.36 727.536 1248.36Z" fill="black"/>
<path d="M221.486 787.025C205.008 787.025 193.487 778.995 189.297 770.546C188.32 768.521 187.831 766.846 187.831 765.03C187.831 760.841 190.624 757.769 195.442 757.769C199.073 757.769 201.307 759.444 204.1 763.005C208.848 769.359 213.666 772.432 222.045 772.432C237.616 772.432 245.366 758.048 245.576 735.215V734.098H245.296C241.456 743.874 231.052 750.437 217.995 750.437C199.143 750.437 184.549 736.891 184.549 717.41C184.549 696.882 200.399 682.149 222.185 682.149C237.895 682.149 250.394 689.899 257.306 704.562C260.937 712.313 262.892 721.949 262.892 733.47C262.892 767.125 247.461 787.025 221.486 787.025ZM222.185 736.472C233.845 736.472 242.573 728.303 242.573 717.061C242.573 705.75 233.775 696.952 222.394 696.952C211.152 696.952 202.215 705.68 202.215 716.712C202.215 728.233 210.733 736.472 222.185 736.472Z" fill="black"/>
<path d="M1238.08 787.025C1220.42 787.025 1208.96 779.833 1203.73 769.708C1202.4 767.265 1201.84 764.96 1201.84 762.586C1201.84 757.838 1204.84 754.836 1209.87 754.836C1213.57 754.836 1215.81 756.442 1217.69 760.143C1221.18 767.753 1227.26 772.292 1238.29 772.292C1249.74 772.292 1257.49 765.729 1257.49 756.582C1257.56 745.829 1249.74 739.824 1236.82 739.824H1231.1C1226.63 739.824 1223.98 737.101 1223.98 733.121C1223.98 729.141 1226.63 726.417 1231.1 726.417H1236.41C1247.51 726.417 1254.91 720.063 1254.91 711.126C1254.91 702.398 1249.18 696.533 1238.01 696.533C1228.52 696.533 1223 700.443 1219.65 708.333C1217.69 712.662 1215.74 714.268 1211.55 714.268C1206.52 714.268 1203.87 711.335 1203.87 706.727C1203.87 704.213 1204.36 701.979 1205.61 699.535C1210.36 689.55 1221.53 682.219 1237.94 682.219C1258.82 682.219 1272.23 693.111 1272.23 708.682C1272.23 721.32 1263.22 729.769 1251.07 732.283V732.632C1265.94 734.028 1275.79 742.966 1275.79 757C1275.79 774.875 1260.15 787.025 1238.08 787.025Z" fill="black"/>
<path d="M1140.11 534C1134.52 534 1131.59 530.928 1131.59 526.389C1131.59 522.898 1132.77 520.803 1136.62 517.172L1167.41 486.659C1180.26 473.951 1183.47 468.854 1183.47 461.173C1183.47 452.166 1176.55 445.672 1166.85 445.672C1157.77 445.672 1151.42 450.281 1147.86 459.358C1146.04 462.989 1143.95 464.874 1139.83 464.874C1134.94 464.874 1132.01 461.872 1132.01 457.403C1132.01 456.076 1132.22 454.819 1132.57 453.632C1135.29 442.74 1147.37 431.219 1166.99 431.219C1187.17 431.219 1201.06 443.159 1201.06 460.056C1201.06 471.856 1195.41 479.816 1178.72 496.155L1155.61 518.918V519.267H1195.83C1200.57 519.267 1203.51 522.2 1203.51 526.668C1203.51 531.067 1200.57 534 1195.83 534H1140.11Z" fill="black"/>
<path d="M291.714 536.396C286.477 536.396 282.846 532.766 282.846 527.319V451.7H282.497L266.228 463.011C264.482 464.268 263.086 464.757 261.131 464.757C257.36 464.757 254.637 462.034 254.637 458.054C254.637 455.261 255.754 453.166 258.757 451.071L279.355 436.618C283.824 433.476 286.617 432.847 290.387 432.847C296.741 432.847 300.582 436.688 300.582 442.902V527.319C300.582 532.766 296.951 536.396 291.714 536.396ZM362.446 537.025C337.588 537.025 322.786 516.846 322.786 484.517C322.786 452.328 337.728 432.219 362.446 432.219C387.094 432.219 401.966 452.188 401.966 484.447C401.966 516.706 387.233 537.025 362.446 537.025ZM362.446 522.292C376.062 522.292 383.812 508.397 383.812 484.517C383.812 460.917 375.922 446.952 362.446 446.952C348.9 446.952 340.94 460.986 340.94 484.447C340.94 508.327 348.76 522.292 362.446 522.292Z" fill="black"/>
<path d="M977.047 1192.02C961.546 1192.02 948.14 1184.62 943.183 1173.66C942.205 1171.5 941.577 1169.4 941.577 1166.82C941.577 1162.14 944.579 1159.21 949.327 1159.21C953.098 1159.21 955.402 1160.67 957.287 1164.37C960.708 1172.54 967.412 1177.36 977.117 1177.36C989.057 1177.36 997.506 1168.91 997.506 1156.97C997.506 1145.38 989.057 1137.14 977.187 1137.14C970.833 1137.14 965.317 1139.73 961.477 1143.5C957.287 1147.69 955.542 1148.59 951.422 1148.59C945.626 1148.59 942.764 1144.47 942.903 1139.59C942.903 1139.17 942.903 1138.89 942.973 1138.47L946.185 1100.42C946.813 1092.46 950.863 1089.24 958.753 1089.24H1002.18C1006.79 1089.24 1009.79 1092.18 1009.79 1096.58C1009.79 1101.04 1006.79 1103.98 1002.18 1103.98H961.477L958.823 1133.79H959.172C963.432 1127.51 971.741 1123.6 981.865 1123.6C1001.14 1123.6 1014.89 1137.21 1014.89 1156.48C1014.89 1177.57 999.391 1192.02 977.047 1192.02Z" fill="black"/>
<path d="M463.929 1190.4C458.902 1190.4 455.69 1187.32 455.69 1183.06C455.69 1180.97 456.179 1179.43 457.226 1177.34L496.397 1103.33V1102.98H450.942C446.473 1102.98 443.261 1100.04 443.261 1095.58C443.261 1091.11 446.473 1088.24 450.942 1088.24H503.869C510.292 1088.24 514.691 1092.01 514.691 1098.37C514.691 1101.65 513.644 1104.44 511.2 1109.19L472.029 1185.16C470.074 1189 467.839 1190.4 463.929 1190.4Z" fill="black"/>
<path d="M990.809 358.396C985.572 358.396 981.941 354.766 981.941 349.319V273.7H981.592L965.323 285.011C963.578 286.268 962.181 286.757 960.226 286.757C956.456 286.757 953.732 284.034 953.732 280.054C953.732 277.261 954.85 275.166 957.852 273.071L978.45 258.618C982.919 255.476 985.712 254.847 989.482 254.847C995.836 254.847 999.677 258.688 999.677 264.902V349.319C999.677 354.766 996.046 358.396 990.809 358.396Z" fill="black"/>
<path d="M454.933 367.396C449.696 367.396 446.065 363.766 446.065 358.319V282.7H445.716L429.447 294.011C427.702 295.268 426.305 295.757 424.35 295.757C420.58 295.757 417.856 293.034 417.856 289.054C417.856 286.261 418.974 284.166 421.976 282.071L442.574 267.618C447.043 264.476 449.836 263.847 453.606 263.847C459.96 263.847 463.801 267.688 463.801 273.902V358.319C463.801 363.766 460.17 367.396 454.933 367.396ZM521.685 367.396C516.448 367.396 512.817 363.766 512.817 358.319V282.7H512.468L496.199 294.011C494.454 295.268 493.057 295.757 491.102 295.757C487.332 295.757 484.608 293.034 484.608 289.054C484.608 286.261 485.726 284.166 488.728 282.071L509.326 267.618C513.795 264.476 516.588 263.847 520.358 263.847C526.712 263.847 530.553 267.688 530.553 273.902V358.319C530.553 363.766 526.922 367.396 521.685 367.396Z" fill="black"/>
<path d="M1186.35 996.396C1181.4 996.396 1177.76 993.185 1177.76 987.529V975.659H1138.03C1131.54 975.659 1127.28 971.539 1127.28 965.534C1127.28 961.624 1128.4 958.342 1131.19 953.315C1138.24 940.677 1149.69 923.43 1161.77 905.695C1168.34 895.919 1172.74 892.847 1180.14 892.847C1189.42 892.847 1194.94 897.735 1194.94 906.114V960.856H1201.99C1206.74 960.856 1209.6 963.928 1209.6 968.257C1209.6 972.656 1206.74 975.659 1201.92 975.659H1194.94V987.529C1194.94 993.185 1191.38 996.396 1186.35 996.396ZM1178.04 961.275V907.929H1177.76C1161.77 930.832 1151.79 945.914 1143.62 960.786V961.275H1178.04Z" fill="black"/>
<path d="M295.5 1014.02C272.388 1014.02 256.259 1001.95 256.259 984.769C256.259 971.711 265.545 961.727 279.021 959.003V958.584C267.431 955.512 259.89 946.924 259.89 936.101C259.89 920.6 274.692 909.219 295.5 909.219C316.308 909.219 331.041 920.53 331.041 936.171C331.041 946.854 323.569 955.373 311.979 958.584V959.003C325.455 961.796 334.811 971.781 334.811 984.769C334.811 1002.02 318.542 1014.02 295.5 1014.02ZM295.5 952.859C305.904 952.859 313.305 946.714 313.305 937.917C313.305 928.979 305.904 922.834 295.5 922.834C285.026 922.834 277.695 929.049 277.695 937.917C277.695 946.714 285.026 952.859 295.5 952.859ZM295.5 1000.27C307.58 1000.27 316.098 993.217 316.098 983.442C316.098 973.597 307.58 966.614 295.5 966.614C283.42 966.614 274.902 973.667 274.902 983.442C274.902 993.217 283.42 1000.27 295.5 1000.27Z" fill="black"/>
<defs>
<filter id="filter0_b_4992_170403" x="-17.1" y="-17.1" width="1488.2" height="1488.2" filterUnits="userSpaceOnUse" color-interpolation-filters="sRGB">
<feFlood flood-opacity="0" result="BackgroundImageFix"/>
<feGaussianBlur in="BackgroundImageFix" stdDeviation="8.55"/>
<feComposite in2="SourceAlpha" operator="in" result="effect1_backgroundBlur_4992_170403"/>
<feBlend mode="normal" in="SourceGraphic" in2="effect1_backgroundBlur_4992_170403" result="shape"/>
</filter>
<linearGradient id="paint0_linear_4992_170403" x1="727" y1="0" x2="727" y2="1454" gradientUnits="userSpaceOnUse">
<stop stop-color="#E3E7EF"/>
<stop offset="1" stop-color="#D6D7D3"/>
</linearGradient>
</defs>
</svg>
