<svg width="1454" height="1454" viewBox="0 0 1454 1454" fill="none" xmlns="http://www.w3.org/2000/svg">
<g filter="url(#filter0_b_5020_83004)">
<path d="M0 297.6C0 193.43 0 141.345 20.2728 101.558C38.1052 66.5596 66.5596 38.1052 101.558 20.2728C141.345 0 193.43 0 297.6 0H1156.4C1260.57 0 1312.65 0 1352.44 20.2728C1387.44 38.1052 1415.89 66.5596 1433.73 101.558C1454 141.345 1454 193.43 1454 297.6V1156.4C1454 1260.57 1454 1312.65 1433.73 1352.44C1415.89 1387.44 1387.44 1415.89 1352.44 1433.73C1312.65 1454 1260.57 1454 1156.4 1454H297.6C193.43 1454 141.345 1454 101.558 1433.73C66.5596 1415.89 38.1052 1387.44 20.2728 1352.44C0 1312.65 0 1260.57 0 1156.4V297.6Z" fill="url(#paint0_linear_5020_83004)" fill-opacity="0.3"/>
</g>
<path d="M1380 727C1380 1087.64 1087.64 1380 727 1380C366.358 1380 74 1087.64 74 727C74 366.358 366.358 74 727 74C1087.64 74 1380 366.358 1380 727Z" fill="#FBFBFB"/>
<path opacity="0.24" d="M676.957 151.142C677.559 156.869 673.404 162.001 667.676 162.603V162.603C661.948 163.205 656.817 159.05 656.215 153.322L653.117 123.847C652.515 118.119 656.67 112.988 662.398 112.386V112.386C668.126 111.784 673.257 115.939 673.859 121.666L676.957 151.142Z" fill="#336DF4"/>
<path opacity="0.24" d="M617.043 159.526C618.24 165.16 614.644 170.697 609.011 171.895V171.895C603.377 173.092 597.84 169.496 596.642 163.863L590.48 134.873C589.283 129.239 592.879 123.702 598.513 122.504V122.504C604.146 121.307 609.683 124.903 610.881 130.536L617.043 159.526Z" fill="#336DF4"/>
<path opacity="0.24" d="M558.324 174.129C560.104 179.607 557.107 185.49 551.629 187.269V187.269C546.152 189.049 540.269 186.051 538.489 180.574L529.331 152.387C527.551 146.91 530.548 141.027 536.026 139.247V139.247C541.503 137.467 547.386 140.465 549.166 145.942L558.324 174.129Z" fill="#336DF4"/>
<path opacity="0.24" d="M501.462 194.789C503.804 200.05 501.438 206.214 496.177 208.557V208.557C490.915 210.899 484.751 208.533 482.409 203.272L470.354 176.197C468.011 170.935 470.378 164.771 475.639 162.429V162.429C480.9 160.086 487.064 162.452 489.407 167.714L501.462 194.789Z" fill="#336DF4"/>
<path opacity="0.24" d="M395.738 253.312C399.123 257.971 398.09 264.492 393.431 267.878V267.878C388.771 271.263 382.25 270.23 378.865 265.57L361.444 241.593C358.059 236.934 359.092 230.412 363.751 227.027V227.027C368.411 223.642 374.932 224.675 378.317 229.334L395.738 253.312Z" fill="#336DF4"/>
<path opacity="0.24" d="M348.038 290.534C351.892 294.814 351.546 301.407 347.266 305.261V305.261C342.986 309.115 336.392 308.769 332.539 304.489L312.707 282.464C308.854 278.184 309.199 271.59 313.479 267.737V267.737C317.759 263.883 324.353 264.229 328.206 268.509L348.038 290.534Z" fill="#336DF4"/>
<path opacity="0.24" d="M304.493 332.537C308.773 336.391 309.118 342.984 305.264 347.264V347.264C301.411 351.544 294.817 351.89 290.537 348.036L268.512 328.205C264.232 324.351 263.887 317.757 267.74 313.477V313.477C271.594 309.197 278.188 308.852 282.468 312.705L304.493 332.537Z" fill="#336DF4"/>
<path opacity="0.24" d="M265.571 378.863C270.231 382.248 271.264 388.769 267.878 393.429V393.429C264.493 398.088 257.972 399.121 253.312 395.736L229.335 378.315C224.676 374.93 223.643 368.409 227.028 363.749V363.749C230.413 359.09 236.935 358.057 241.594 361.442L265.571 378.863Z" fill="#336DF4"/>
<path opacity="0.24" d="M203.27 482.406C208.532 484.748 210.898 490.913 208.555 496.174V496.174C206.213 501.435 200.049 503.802 194.787 501.459L167.712 489.404C162.451 487.062 160.085 480.898 162.427 475.636V475.636C164.77 470.375 170.934 468.009 176.195 470.351L203.27 482.406Z" fill="#336DF4"/>
<path opacity="0.24" d="M180.575 538.49C186.052 540.27 189.049 546.153 187.27 551.631V551.631C185.49 557.108 179.607 560.106 174.13 558.326L145.943 549.167C140.465 547.388 137.468 541.505 139.247 536.027V536.027C141.027 530.55 146.91 527.552 152.387 529.332L180.575 538.49Z" fill="#336DF4"/>
<path opacity="0.24" d="M163.862 596.64C169.496 597.838 173.092 603.375 171.894 609.009V609.009C170.697 614.642 165.159 618.238 159.526 617.041L130.536 610.879C124.903 609.681 121.307 604.144 122.504 598.511V598.511C123.701 592.877 129.239 589.281 134.872 590.478L163.862 596.64Z" fill="#336DF4"/>
<path opacity="0.24" d="M153.324 656.219C159.052 656.821 163.207 661.952 162.605 667.68V667.68C162.003 673.407 156.872 677.562 151.144 676.96L121.669 673.862C115.941 673.26 111.786 668.129 112.388 662.401V662.401C112.99 656.674 118.121 652.519 123.849 653.121L153.324 656.219Z" fill="#336DF4"/>
<path opacity="0.24" d="M151.145 777.039C156.872 776.437 162.004 780.592 162.606 786.32V786.32C163.208 792.048 159.052 797.179 153.325 797.781L123.849 800.879C118.122 801.481 112.99 797.326 112.388 791.598V791.598C111.786 785.87 115.942 780.739 121.669 780.137L151.145 777.039Z" fill="#336DF4"/>
<path opacity="0.24" d="M159.526 836.959C165.16 835.762 170.697 839.358 171.895 844.991V844.991C173.092 850.625 169.496 856.162 163.863 857.36L134.873 863.522C129.239 864.719 123.702 861.123 122.504 855.489V855.489C121.307 849.856 124.903 844.319 130.536 843.121L159.526 836.959Z" fill="#336DF4"/>
<path opacity="0.24" d="M174.129 895.674C179.607 893.894 185.49 896.891 187.269 902.369V902.369C189.049 907.846 186.051 913.729 180.574 915.509L152.387 924.668C146.91 926.447 141.027 923.45 139.247 917.972V917.972C137.467 912.495 140.465 906.612 145.942 904.832L174.129 895.674Z" fill="#336DF4"/>
<path opacity="0.24" d="M194.786 952.54C200.047 950.198 206.211 952.564 208.554 957.825V957.825C210.896 963.087 208.53 969.251 203.269 971.593L176.194 983.648C170.932 985.991 164.768 983.624 162.426 978.363V978.363C160.083 973.102 162.449 966.938 167.711 964.595L194.786 952.54Z" fill="#336DF4"/>
<path opacity="0.24" d="M253.314 1058.27C257.973 1054.88 264.494 1055.91 267.879 1060.57V1060.57C271.265 1065.23 270.232 1071.75 265.572 1075.14L241.595 1092.56C236.936 1095.94 230.414 1094.91 227.029 1090.25V1090.25C223.644 1085.59 224.677 1079.07 229.336 1075.69L253.314 1058.27Z" fill="#336DF4"/>
<path opacity="0.24" d="M290.532 1105.96C294.812 1102.11 301.405 1102.46 305.259 1106.74V1106.74C309.113 1111.02 308.767 1117.61 304.487 1121.46L282.462 1141.29C278.182 1145.15 271.588 1144.8 267.735 1140.52V1140.52C263.881 1136.24 264.227 1129.65 268.507 1125.8L290.532 1105.96Z" fill="#336DF4"/>
<path opacity="0.24" d="M332.538 1149.51C336.392 1145.23 342.985 1144.89 347.265 1148.74V1148.74C351.545 1152.59 351.891 1159.19 348.037 1163.47L328.206 1185.49C324.352 1189.77 317.758 1190.12 313.478 1186.26V1186.26C309.198 1182.41 308.853 1175.82 312.706 1171.54L332.538 1149.51Z" fill="#336DF4"/>
<path opacity="0.24" d="M378.863 1188.43C382.248 1183.77 388.769 1182.74 393.429 1186.12V1186.12C398.088 1189.51 399.121 1196.03 395.736 1200.69L378.315 1224.67C374.93 1229.33 368.409 1230.36 363.749 1226.97V1226.97C359.09 1223.59 358.057 1217.07 361.442 1212.41L378.863 1188.43Z" fill="#336DF4"/>
<path opacity="0.24" d="M482.407 1250.73C484.749 1245.47 490.914 1243.1 496.175 1245.44V1245.44C501.436 1247.79 503.802 1253.95 501.46 1259.21L489.405 1286.29C487.063 1291.55 480.899 1293.91 475.637 1291.57V1291.57C470.376 1289.23 468.01 1283.06 470.352 1277.8L482.407 1250.73Z" fill="#336DF4"/>
<path opacity="0.24" d="M538.488 1273.43C540.268 1267.95 546.151 1264.95 551.629 1266.73V1266.73C557.106 1268.51 560.104 1274.39 558.324 1279.87L549.165 1308.06C547.386 1313.53 541.503 1316.53 536.025 1314.75V1314.75C530.548 1312.97 527.55 1307.09 529.33 1301.61L538.488 1273.43Z" fill="#336DF4"/>
<path opacity="0.24" d="M596.644 1290.14C597.842 1284.5 603.379 1280.91 609.013 1282.1V1282.1C614.646 1283.3 618.242 1288.84 617.045 1294.47L610.883 1323.46C609.685 1329.1 604.148 1332.69 598.514 1331.5V1331.5C592.881 1330.3 589.285 1324.76 590.482 1319.13L596.644 1290.14Z" fill="#336DF4"/>
<path opacity="0.24" d="M656.215 1300.68C656.817 1294.95 661.948 1290.8 667.676 1291.4V1291.4C673.403 1292 677.559 1297.13 676.957 1302.86L673.859 1332.33C673.257 1338.06 668.125 1342.22 662.398 1341.61V1341.61C656.67 1341.01 652.515 1335.88 653.117 1330.15L656.215 1300.68Z" fill="#336DF4"/>
<path opacity="0.24" d="M777.043 1302.86C776.441 1297.13 780.596 1292 786.324 1291.4V1291.4C792.052 1290.8 797.183 1294.95 797.785 1300.68L800.883 1330.15C801.485 1335.88 797.33 1341.01 791.602 1341.61V1341.61C785.874 1342.22 780.743 1338.06 780.141 1332.33L777.043 1302.86Z" fill="#336DF4"/>
<path opacity="0.24" d="M836.957 1294.47C835.76 1288.84 839.356 1283.3 844.989 1282.11V1282.11C850.623 1280.91 856.16 1284.5 857.358 1290.14L863.52 1319.13C864.717 1324.76 861.121 1330.3 855.487 1331.5V1331.5C849.854 1332.69 844.317 1329.1 843.119 1323.46L836.957 1294.47Z" fill="#336DF4"/>
<path opacity="0.24" d="M895.676 1279.87C893.896 1274.39 896.893 1268.51 902.371 1266.73V1266.73C907.848 1264.95 913.731 1267.95 915.511 1273.43L924.669 1301.61C926.449 1307.09 923.452 1312.97 917.974 1314.75V1314.75C912.497 1316.53 906.614 1313.54 904.834 1308.06L895.676 1279.87Z" fill="#336DF4"/>
<path opacity="0.24" d="M952.538 1259.21C950.196 1253.95 952.562 1247.79 957.823 1245.44V1245.44C963.085 1243.1 969.249 1245.47 971.591 1250.73L983.646 1277.8C985.989 1283.06 983.622 1289.23 978.361 1291.57V1291.57C973.1 1293.91 966.936 1291.55 964.593 1286.29L952.538 1259.21Z" fill="#336DF4"/>
<path opacity="0.24" d="M1058.26 1200.69C1054.88 1196.03 1055.91 1189.51 1060.57 1186.12V1186.12C1065.23 1182.74 1071.75 1183.77 1075.14 1188.43L1092.56 1212.41C1095.94 1217.07 1094.91 1223.59 1090.25 1226.97V1226.97C1085.59 1230.36 1079.07 1229.33 1075.68 1224.67L1058.26 1200.69Z" fill="#336DF4"/>
<path opacity="0.24" d="M1105.96 1163.47C1102.11 1159.19 1102.45 1152.59 1106.73 1148.74V1148.74C1111.01 1144.89 1117.61 1145.23 1121.46 1149.51L1141.29 1171.54C1145.15 1175.82 1144.8 1182.41 1140.52 1186.26V1186.26C1136.24 1190.12 1129.65 1189.77 1125.79 1185.49L1105.96 1163.47Z" fill="#336DF4"/>
<path opacity="0.24" d="M1149.51 1121.46C1145.23 1117.61 1144.88 1111.02 1148.74 1106.74V1106.74C1152.59 1102.46 1159.18 1102.11 1163.46 1105.96L1185.49 1125.8C1189.77 1129.65 1190.11 1136.24 1186.26 1140.52V1140.52C1182.41 1144.8 1175.81 1145.15 1171.53 1141.29L1149.51 1121.46Z" fill="#336DF4"/>
<path opacity="0.24" d="M1188.43 1075.14C1183.77 1071.75 1182.74 1065.23 1186.12 1060.57V1060.57C1189.51 1055.91 1196.03 1054.88 1200.69 1058.26L1224.66 1075.68C1229.32 1079.07 1230.36 1085.59 1226.97 1090.25V1090.25C1223.59 1094.91 1217.07 1095.94 1212.41 1092.56L1188.43 1075.14Z" fill="#336DF4"/>
<path opacity="0.24" d="M1250.73 971.594C1245.47 969.252 1243.1 963.087 1245.44 957.826V957.826C1247.79 952.565 1253.95 950.198 1259.21 952.541L1286.29 964.596C1291.55 966.938 1293.92 973.102 1291.57 978.364V978.364C1289.23 983.625 1283.07 985.991 1277.8 983.649L1250.73 971.594Z" fill="#336DF4"/>
<path opacity="0.24" d="M1273.43 915.51C1267.95 913.73 1264.95 907.847 1266.73 902.369V902.369C1268.51 896.892 1274.39 893.894 1279.87 895.674L1308.06 904.833C1313.53 906.612 1316.53 912.495 1314.75 917.973V917.973C1312.97 923.45 1307.09 926.448 1301.61 924.668L1273.43 915.51Z" fill="#336DF4"/>
<path opacity="0.24" d="M1290.14 857.36C1284.5 856.162 1280.91 850.625 1282.11 844.991V844.991C1283.3 839.358 1288.84 835.762 1294.47 836.959L1323.46 843.121C1329.1 844.319 1332.69 849.856 1331.5 855.489V855.489C1330.3 861.123 1324.76 864.719 1319.13 863.522L1290.14 857.36Z" fill="#336DF4"/>
<path opacity="0.24" d="M1300.68 797.781C1294.95 797.179 1290.79 792.048 1291.39 786.32V786.32C1292 780.593 1297.13 776.438 1302.86 777.04L1332.33 780.138C1338.06 780.74 1342.21 785.871 1341.61 791.599V791.599C1341.01 797.326 1335.88 801.481 1330.15 800.879L1300.68 797.781Z" fill="#336DF4"/>
<path opacity="0.24" d="M1302.86 676.961C1297.13 677.563 1292 673.408 1291.39 667.68V667.68C1290.79 661.952 1294.95 656.821 1300.68 656.219L1330.15 653.121C1335.88 652.519 1341.01 656.674 1341.61 662.402V662.402C1342.21 668.13 1338.06 673.261 1332.33 673.863L1302.86 676.961Z" fill="#336DF4"/>
<path opacity="0.24" d="M1294.47 617.041C1288.84 618.238 1283.3 614.642 1282.11 609.009V609.009C1280.91 603.375 1284.5 597.838 1290.14 596.64L1319.13 590.478C1324.76 589.281 1330.3 592.877 1331.5 598.511V598.511C1332.69 604.144 1329.1 609.681 1323.46 610.879L1294.47 617.041Z" fill="#336DF4"/>
<path opacity="0.24" d="M1279.87 558.326C1274.39 560.106 1268.51 557.109 1266.73 551.631V551.631C1264.95 546.154 1267.95 540.271 1273.43 538.491L1301.61 529.332C1307.09 527.553 1312.97 530.55 1314.75 536.028V536.028C1316.53 541.505 1313.54 547.388 1308.06 549.168L1279.87 558.326Z" fill="#336DF4"/>
<path opacity="0.24" d="M1259.21 501.46C1253.95 503.802 1247.79 501.436 1245.45 496.175V496.175C1243.1 490.913 1245.47 484.749 1250.73 482.407L1277.81 470.352C1283.07 468.009 1289.23 470.376 1291.57 475.637V475.637C1293.92 480.898 1291.55 487.062 1286.29 489.405L1259.21 501.46Z" fill="#336DF4"/>
<path opacity="0.24" d="M1200.69 395.735C1196.03 399.12 1189.51 398.087 1186.12 393.428V393.428C1182.74 388.768 1183.77 382.247 1188.43 378.862L1212.4 361.441C1217.06 358.056 1223.59 359.089 1226.97 363.748V363.748C1230.36 368.408 1229.32 374.929 1224.66 378.314L1200.69 395.735Z" fill="#336DF4"/>
<path opacity="0.24" d="M1163.47 348.036C1159.19 351.89 1152.59 351.544 1148.74 347.264V347.264C1144.89 342.984 1145.23 336.391 1149.51 332.537L1171.54 312.705C1175.82 308.852 1182.41 309.197 1186.27 313.477V313.477C1190.12 317.757 1189.77 324.351 1185.49 328.204L1163.47 348.036Z" fill="#336DF4"/>
<path opacity="0.24" d="M1121.46 304.489C1117.61 308.769 1111.01 309.114 1106.73 305.261V305.261C1102.45 301.407 1102.11 294.813 1105.96 290.533L1125.79 268.508C1129.65 264.228 1136.24 263.883 1140.52 267.736V267.736C1144.8 271.59 1145.15 278.184 1141.29 282.464L1121.46 304.489Z" fill="#336DF4"/>
<path opacity="0.24" d="M1075.14 265.57C1071.75 270.23 1065.23 271.263 1060.57 267.877V267.877C1055.91 264.492 1054.88 257.971 1058.26 253.311L1075.68 229.334C1079.07 224.675 1085.59 223.642 1090.25 227.027V227.027C1094.91 230.412 1095.94 236.934 1092.56 241.593L1075.14 265.57Z" fill="#336DF4"/>
<path opacity="0.24" d="M971.593 203.272C969.251 208.534 963.086 210.9 957.825 208.557V208.557C952.564 206.215 950.198 200.051 952.54 194.789L964.595 167.714C966.937 162.453 973.101 160.086 978.363 162.429V162.429C983.624 164.771 985.99 170.936 983.648 176.197L971.593 203.272Z" fill="#336DF4"/>
<path opacity="0.24" d="M915.512 180.575C913.732 186.052 907.849 189.049 902.371 187.27V187.27C896.894 185.49 893.896 179.607 895.676 174.13L904.835 145.943C906.614 140.465 912.497 137.468 917.975 139.247V139.247C923.452 141.027 926.45 146.91 924.67 152.387L915.512 180.575Z" fill="#336DF4"/>
<path opacity="0.24" d="M857.356 163.863C856.158 169.497 850.621 173.093 844.987 171.895V171.895C839.354 170.698 835.758 165.16 836.955 159.527L843.117 130.537C844.315 124.904 849.852 121.308 855.486 122.505V122.505C861.119 123.702 864.715 129.24 863.518 134.873L857.356 163.863Z" fill="#336DF4"/>
<path opacity="0.24" d="M797.785 153.321C797.183 159.049 792.052 163.204 786.324 162.602V162.602C780.597 162 776.441 156.869 777.043 151.141L780.141 121.666C780.743 115.938 785.875 111.783 791.602 112.385V112.385C797.33 112.987 801.485 118.118 800.883 123.846L797.785 153.321Z" fill="#336DF4"/>
<path d="M737.43 149.066C737.43 154.825 732.761 159.494 727.002 159.494V159.494C721.242 159.494 716.574 154.825 716.574 149.066V119.428C716.574 113.669 721.242 109 727.002 109V109C732.761 109 737.43 113.669 737.43 119.428V149.066Z" fill="#336DF4"/>
<path d="M149.064 716.572C154.823 716.572 159.492 721.241 159.492 727V727C159.492 732.76 154.823 737.428 149.064 737.428H119.426C113.667 737.428 108.998 732.76 108.998 727V727C108.998 721.241 113.667 716.572 119.426 716.572H149.064Z" fill="#336DF4"/>
<path d="M716.57 1304.93C716.57 1299.17 721.239 1294.51 726.998 1294.51V1294.51C732.758 1294.51 737.426 1299.17 737.426 1304.93V1334.57C737.426 1340.33 732.758 1345 726.998 1345V1345C721.239 1345 716.57 1340.33 716.57 1334.57V1304.93Z" fill="#336DF4"/>
<path d="M1304.94 737.428C1299.18 737.428 1294.51 732.759 1294.51 727V727C1294.51 721.24 1299.18 716.572 1304.94 716.572H1334.57C1340.33 716.572 1345 721.24 1345 727V727C1345 732.759 1340.33 737.428 1334.57 737.428H1304.94Z" fill="#336DF4"/>
<path d="M447.067 221.28C449.947 226.267 448.238 232.645 443.25 235.525V235.525C438.263 238.404 431.885 236.695 429.005 231.708L414.186 206.041C411.307 201.053 413.016 194.675 418.003 191.796V191.796C422.991 188.916 429.369 190.625 432.248 195.613L447.067 221.28Z" fill="#336DF4"/>
<path d="M231.711 429.002C236.699 431.881 238.408 438.259 235.528 443.247V443.247C232.649 448.234 226.271 449.943 221.283 447.064L195.616 432.245C190.629 429.365 188.92 422.988 191.799 418V418C194.679 413.012 201.057 411.303 206.044 414.183L231.711 429.002Z" fill="#336DF4"/>
<path d="M221.282 1006.94C226.269 1004.06 232.647 1005.76 235.527 1010.75V1010.75C238.406 1015.74 236.697 1022.12 231.71 1025L206.043 1039.82C201.055 1042.7 194.677 1040.99 191.798 1036V1036C188.918 1031.01 190.627 1024.63 195.615 1021.75L221.282 1006.94Z" fill="#336DF4"/>
<path d="M429.005 1222.29C431.884 1217.3 438.262 1215.6 443.25 1218.47V1218.47C448.237 1221.35 449.946 1227.73 447.067 1232.72L432.248 1258.39C429.368 1263.37 422.99 1265.08 418.003 1262.2V1262.2C413.015 1259.32 411.306 1252.95 414.186 1247.96L429.005 1222.29Z" fill="#336DF4"/>
<path d="M1006.94 1232.72C1004.06 1227.73 1005.77 1221.35 1010.76 1218.47V1218.47C1015.75 1215.59 1022.12 1217.3 1025 1222.29L1039.82 1247.96C1042.7 1252.95 1040.99 1259.32 1036 1262.2V1262.2C1031.02 1265.08 1024.64 1263.37 1021.76 1258.39L1006.94 1232.72Z" fill="#336DF4"/>
<path d="M1222.3 1025C1217.31 1022.12 1215.6 1015.74 1218.48 1010.75V1010.75C1221.36 1005.77 1227.74 1004.06 1232.72 1006.94L1258.39 1021.76C1263.38 1024.63 1265.09 1031.01 1262.21 1036V1036C1259.33 1040.99 1252.95 1042.7 1247.96 1039.82L1222.3 1025Z" fill="#336DF4"/>
<path d="M1232.73 447.063C1227.74 449.943 1221.36 448.234 1218.48 443.246V443.246C1215.6 438.259 1217.31 431.881 1222.3 429.001L1247.97 414.183C1252.95 411.303 1259.33 413.012 1262.21 417.999V417.999C1265.09 422.987 1263.38 429.365 1258.39 432.244L1232.73 447.063Z" fill="#336DF4"/>
<path d="M1025 231.708C1022.12 236.696 1015.75 238.405 1010.76 235.525V235.525C1005.77 232.646 1004.06 226.268 1006.94 221.28L1021.76 195.613C1024.64 190.626 1031.02 188.917 1036 191.796V191.796C1040.99 194.676 1042.7 201.054 1039.82 206.041L1025 231.708Z" fill="#336DF4"/>
<path d="M732.987 297C727.401 297 724.469 293.928 724.469 289.389C724.469 285.898 725.656 283.803 729.496 280.172L760.289 249.659C773.136 236.951 776.348 231.854 776.348 224.173C776.348 215.166 769.436 208.672 759.73 208.672C750.653 208.672 744.299 213.281 740.738 222.358C738.922 225.989 736.828 227.874 732.708 227.874C727.82 227.874 724.888 224.872 724.888 220.403C724.888 219.076 725.097 217.819 725.446 216.632C728.169 205.74 740.249 194.219 759.87 194.219C780.049 194.219 793.944 206.159 793.944 223.056C793.944 234.856 788.288 242.816 771.6 259.155L748.488 281.918V282.267H788.707C793.455 282.267 796.388 285.2 796.388 289.668C796.388 294.067 793.455 297 788.707 297H732.987Z" fill="#336DF4"/>
<path d="M692.139 298.397C686.902 298.397 683.271 294.766 683.271 289.32V213.7H682.922L666.653 225.012C664.908 226.269 663.511 226.757 661.556 226.757C657.786 226.757 655.062 224.034 655.062 220.054C655.062 217.261 656.18 215.167 659.182 213.072L679.78 198.618C684.249 195.476 687.042 194.848 690.812 194.848C697.167 194.848 701.007 198.688 701.007 204.902V289.32C701.007 294.766 697.376 298.397 692.139 298.397Z" fill="#336DF4"/>
<path d="M727.817 1263.02C712.106 1263.02 699.678 1255.34 692.695 1240.61C688.995 1232.86 687.109 1223.22 687.109 1211.77C687.109 1178.19 702.471 1158.15 728.096 1158.15C743.458 1158.15 755.188 1164.85 760.215 1174.42C761.333 1176.44 761.821 1178.19 761.821 1180.14C761.821 1184.26 758.889 1187.4 754.141 1187.4C750.58 1187.4 748.345 1185.73 745.552 1182.17C740.874 1175.74 735.498 1172.81 728.026 1172.81C712.805 1172.81 704.705 1186.85 704.356 1210.03V1211.08H704.705C708.685 1201.79 718.74 1194.81 732.425 1194.81C751.836 1194.81 765.452 1208.77 765.452 1227.83C765.452 1248.29 749.602 1263.02 727.817 1263.02ZM727.538 1248.36C738.779 1248.36 747.717 1239.56 747.717 1228.53C747.787 1216.94 739.338 1208.7 727.747 1208.7C716.156 1208.7 707.428 1216.94 707.428 1228.18C707.428 1239.49 716.296 1248.36 727.538 1248.36Z" fill="#336DF4"/>
<path d="M221.484 787.024C205.005 787.024 193.484 778.995 189.295 770.546C188.317 768.521 187.829 766.845 187.829 765.03C187.829 760.84 190.622 757.768 195.439 757.768C199.07 757.768 201.305 759.444 204.098 763.005C208.846 769.359 213.664 772.431 222.042 772.431C237.613 772.431 245.364 758.047 245.573 735.215V734.098H245.294C241.454 743.873 231.05 750.437 217.993 750.437C199.14 750.437 184.547 736.891 184.547 717.41C184.547 696.881 200.397 682.148 222.182 682.148C237.893 682.148 250.391 689.899 257.304 704.562C260.935 712.312 262.89 721.948 262.89 733.469C262.89 767.125 247.458 787.024 221.484 787.024ZM222.182 736.472C233.843 736.472 242.571 728.302 242.571 717.061C242.571 705.749 233.773 696.951 222.392 696.951C211.15 696.951 202.212 705.679 202.212 716.711C202.212 728.232 210.731 736.472 222.182 736.472Z" fill="#336DF4"/>
<path d="M1238.08 787.025C1220.42 787.025 1208.97 779.833 1203.73 769.708C1202.4 767.265 1201.84 764.96 1201.84 762.586C1201.84 757.838 1204.85 754.836 1209.87 754.836C1213.57 754.836 1215.81 756.442 1217.69 760.143C1221.19 767.753 1227.26 772.292 1238.29 772.292C1249.74 772.292 1257.49 765.729 1257.49 756.582C1257.56 745.829 1249.74 739.824 1236.83 739.824H1231.1C1226.63 739.824 1223.98 737.101 1223.98 733.121C1223.98 729.141 1226.63 726.417 1231.1 726.417H1236.41C1247.51 726.417 1254.91 720.063 1254.91 711.126C1254.91 702.398 1249.18 696.533 1238.01 696.533C1228.52 696.533 1223 700.443 1219.65 708.333C1217.69 712.662 1215.74 714.268 1211.55 714.268C1206.52 714.268 1203.87 711.335 1203.87 706.727C1203.87 704.213 1204.36 701.979 1205.61 699.535C1210.36 689.55 1221.53 682.219 1237.94 682.219C1258.82 682.219 1272.23 693.111 1272.23 708.682C1272.23 721.32 1263.22 729.769 1251.07 732.283V732.632C1265.94 734.028 1275.79 742.966 1275.79 757C1275.79 774.875 1260.15 787.025 1238.08 787.025Z" fill="#336DF4"/>
<path d="M1140.1 534C1134.52 534 1131.59 530.928 1131.59 526.389C1131.59 522.898 1132.77 520.803 1136.61 517.172L1167.41 486.659C1180.25 473.951 1183.47 468.854 1183.47 461.173C1183.47 452.166 1176.55 445.672 1166.85 445.672C1157.77 445.672 1151.42 450.281 1147.85 459.358C1146.04 462.989 1143.94 464.874 1139.83 464.874C1134.94 464.874 1132 461.872 1132 457.403C1132 456.076 1132.21 454.819 1132.56 453.632C1135.29 442.74 1147.37 431.219 1166.99 431.219C1187.17 431.219 1201.06 443.159 1201.06 460.056C1201.06 471.856 1195.41 479.816 1178.72 496.155L1155.61 518.918V519.267H1195.82C1200.57 519.267 1203.5 522.2 1203.5 526.668C1203.5 531.067 1200.57 534 1195.82 534H1140.1Z" fill="#336DF4"/>
<path d="M362.449 537.025C337.592 537.025 322.789 516.846 322.789 484.517C322.789 452.328 337.731 432.219 362.449 432.219C387.097 432.219 401.97 452.188 401.97 484.447C401.97 516.706 387.237 537.025 362.449 537.025ZM362.449 522.292C376.065 522.292 383.815 508.397 383.815 484.517C383.815 460.917 375.925 446.952 362.449 446.952C348.903 446.952 340.943 460.986 340.943 484.447C340.943 508.327 348.764 522.292 362.449 522.292Z" fill="#336DF4"/>
<path d="M291.717 536.397C286.48 536.397 282.85 532.766 282.85 527.32V451.7H282.5L266.231 463.012C264.486 464.269 263.089 464.757 261.134 464.757C257.364 464.757 254.641 462.034 254.641 458.054C254.641 455.261 255.758 453.167 258.76 451.072L279.358 436.618C283.827 433.476 286.62 432.848 290.391 432.848C296.745 432.848 300.585 436.688 300.585 442.902V527.32C300.585 532.766 296.954 536.397 291.717 536.397Z" fill="#336DF4"/>
<path d="M977.049 1192.03C961.548 1192.03 948.142 1184.62 943.184 1173.66C942.207 1171.5 941.578 1169.4 941.578 1166.82C941.578 1162.14 944.581 1159.21 949.329 1159.21C953.099 1159.21 955.403 1160.67 957.289 1164.38C960.71 1172.54 967.413 1177.36 977.119 1177.36C989.059 1177.36 997.507 1168.91 997.507 1156.97C997.507 1145.38 989.059 1137.14 977.188 1137.14C970.834 1137.14 965.318 1139.73 961.478 1143.5C957.289 1147.69 955.543 1148.59 951.423 1148.59C945.628 1148.59 942.765 1144.48 942.905 1139.59C942.905 1139.17 942.905 1138.89 942.975 1138.47L946.187 1100.42C946.815 1092.46 950.865 1089.24 958.755 1089.24H1002.19C1006.79 1089.24 1009.8 1092.18 1009.8 1096.58C1009.8 1101.04 1006.79 1103.98 1002.19 1103.98H961.478L958.825 1133.79H959.174C963.433 1127.51 971.742 1123.6 981.867 1123.6C1001.14 1123.6 1014.89 1137.21 1014.89 1156.48C1014.89 1177.57 999.393 1192.03 977.049 1192.03Z" fill="#336DF4"/>
<path d="M463.926 1190.4C458.898 1190.4 455.687 1187.32 455.687 1183.07C455.687 1180.97 456.175 1179.43 457.223 1177.34L496.394 1103.33V1102.98H450.938C446.47 1102.98 443.258 1100.04 443.258 1095.58C443.258 1091.11 446.47 1088.24 450.938 1088.24H503.865C510.289 1088.24 514.688 1092.01 514.688 1098.37C514.688 1101.65 513.641 1104.44 511.197 1109.19L472.025 1185.16C470.07 1189 467.836 1190.4 463.926 1190.4Z" fill="#336DF4"/>
<path d="M990.811 358.397C985.574 358.397 981.943 354.766 981.943 349.32V273.7H981.594L965.325 285.012C963.58 286.269 962.183 286.757 960.228 286.757C956.458 286.757 953.734 284.034 953.734 280.054C953.734 277.261 954.852 275.167 957.854 273.072L978.452 258.618C982.921 255.476 985.714 254.848 989.484 254.848C995.838 254.848 999.679 258.688 999.679 264.902V349.32C999.679 354.766 996.048 358.397 990.811 358.397Z" fill="#336DF4"/>
<path d="M521.686 367.397C516.449 367.397 512.818 363.766 512.818 358.32V282.7H512.469L496.2 294.012C494.455 295.269 493.058 295.757 491.103 295.757C487.333 295.757 484.609 293.034 484.609 289.054C484.609 286.261 485.727 284.167 488.729 282.072L509.327 267.618C513.796 264.476 516.589 263.848 520.359 263.848C526.713 263.848 530.554 267.688 530.554 273.902V358.32C530.554 363.766 526.923 367.397 521.686 367.397Z" fill="#336DF4"/>
<path d="M454.936 367.397C449.699 367.397 446.068 363.766 446.068 358.32V282.7H445.719L429.45 294.012C427.705 295.269 426.308 295.757 424.353 295.757C420.583 295.757 417.859 293.034 417.859 289.054C417.859 286.261 418.977 284.167 421.979 282.072L442.577 267.618C447.046 264.476 449.839 263.848 453.609 263.848C459.963 263.848 463.804 267.688 463.804 273.902V358.32C463.804 363.766 460.173 367.397 454.936 367.397Z" fill="#336DF4"/>
<path d="M1186.35 996.397C1181.4 996.397 1177.76 993.185 1177.76 987.529V975.659H1138.03C1131.54 975.659 1127.28 971.54 1127.28 965.535C1127.28 961.625 1128.4 958.343 1131.19 953.315C1138.24 940.677 1149.69 923.431 1161.77 905.695C1168.34 895.92 1172.74 892.848 1180.14 892.848C1189.42 892.848 1194.94 897.735 1194.94 906.114V960.856H1201.99C1206.74 960.856 1209.6 963.929 1209.6 968.258C1209.6 972.657 1206.74 975.659 1201.92 975.659H1194.94V987.529C1194.94 993.185 1191.38 996.397 1186.35 996.397ZM1178.04 961.275V907.93H1177.76C1161.77 930.832 1151.79 945.914 1143.62 960.787V961.275H1178.04Z" fill="#336DF4"/>
<path d="M295.499 1014.02C272.387 1014.02 256.258 1001.95 256.258 984.769C256.258 971.711 265.544 961.727 279.021 959.003V958.584C267.43 955.512 259.889 946.924 259.889 936.101C259.889 920.6 274.691 909.219 295.499 909.219C316.307 909.219 331.04 920.53 331.04 936.171C331.04 946.854 323.568 955.373 311.978 958.584V959.003C325.454 961.796 334.81 971.781 334.81 984.769C334.81 1002.02 318.541 1014.02 295.499 1014.02ZM295.499 952.859C305.903 952.859 313.304 946.714 313.304 937.917C313.304 928.979 305.903 922.834 295.499 922.834C285.025 922.834 277.694 929.049 277.694 937.917C277.694 946.714 285.025 952.859 295.499 952.859ZM295.499 1000.27C307.579 1000.27 316.097 993.217 316.097 983.442C316.097 973.597 307.579 966.614 295.499 966.614C283.419 966.614 274.901 973.667 274.901 983.442C274.901 993.217 283.419 1000.27 295.499 1000.27Z" fill="#336DF4"/>
<g filter="url(#filter1_d_5020_83004)">
<path d="M727.5 677C713.969 677 703 666.031 703 652.5L703 138.5C703 124.969 713.969 114 727.5 114V114C741.031 114 752 124.969 752 138.5L752 652.5C752 666.031 741.031 677 727.5 677V677Z" fill="#336DF4"/>
<path d="M727 640C717.611 640 710 647.611 710 657V726C710 735.389 717.611 743 727 743V743C736.389 743 744 735.389 744 726V657C744 647.611 736.389 640 727 640V640Z" fill="#336DF4"/>
</g>
<g filter="url(#filter2_d_5020_83004)">
<rect width="294.724" height="50" rx="25" transform="matrix(-1 0 0 1 1076.16 701.07)" fill="#336DF4"/>
<rect width="98.8445" height="34.0838" rx="17.0419" transform="matrix(-1 0 0 1 810 708.652)" fill="#336DF4"/>
</g>
<rect x="808.172" y="633.308" width="17" height="742" transform="rotate(45 808.172 633.308)" fill="#C2D4FF"/>
<rect x="726.852" y="701.896" width="35" height="35" rx="17.5" transform="rotate(45 726.852 701.896)" fill="#C2D4FF"/>
<rect x="726.852" y="714.625" width="17" height="17" rx="8.5" transform="rotate(45 726.852 714.625)" fill="#FBFBFB"/>
<defs>
<filter id="filter0_b_5020_83004" x="-17.1" y="-17.1" width="1488.2" height="1488.2" filterUnits="userSpaceOnUse" color-interpolation-filters="sRGB">
<feFlood flood-opacity="0" result="BackgroundImageFix"/>
<feGaussianBlur in="BackgroundImageFix" stdDeviation="8.55"/>
<feComposite in2="SourceAlpha" operator="in" result="effect1_backgroundBlur_5020_83004"/>
<feBlend mode="normal" in="SourceGraphic" in2="effect1_backgroundBlur_5020_83004" result="shape"/>
</filter>
<filter id="filter1_d_5020_83004" x="663" y="74" width="129" height="1307" filterUnits="userSpaceOnUse" color-interpolation-filters="sRGB">
<feFlood flood-opacity="0" result="BackgroundImageFix"/>
<feColorMatrix in="SourceAlpha" type="matrix" values="0 0 0 0 0 0 0 0 0 0 0 0 0 0 0 0 0 0 127 0" result="hardAlpha"/>
<feOffset/>
<feGaussianBlur stdDeviation="20"/>
<feComposite in2="hardAlpha" operator="out"/>
<feColorMatrix type="matrix" values="0 0 0 0 0 0 0 0 0 0 0 0 0 0 0 0 0 0 0.31 0"/>
<feBlend mode="normal" in2="BackgroundImageFix" result="effect1_dropShadow_5020_83004"/>
<feBlend mode="normal" in="SourceGraphic" in2="effect1_dropShadow_5020_83004" result="shape"/>
</filter>
<filter id="filter2_d_5020_83004" x="338" y="661.001" width="778.156" height="130.069" filterUnits="userSpaceOnUse" color-interpolation-filters="sRGB">
<feFlood flood-opacity="0" result="BackgroundImageFix"/>
<feColorMatrix in="SourceAlpha" type="matrix" values="0 0 0 0 0 0 0 0 0 0 0 0 0 0 0 0 0 0 127 0" result="hardAlpha"/>
<feOffset/>
<feGaussianBlur stdDeviation="20"/>
<feComposite in2="hardAlpha" operator="out"/>
<feColorMatrix type="matrix" values="0 0 0 0 0 0 0 0 0 0 0 0 0 0 0 0 0 0 0.31 0"/>
<feBlend mode="normal" in2="BackgroundImageFix" result="effect1_dropShadow_5020_83004"/>
<feBlend mode="normal" in="SourceGraphic" in2="effect1_dropShadow_5020_83004" result="shape"/>
</filter>
<linearGradient id="paint0_linear_5020_83004" x1="727" y1="0" x2="727" y2="1454" gradientUnits="userSpaceOnUse">
<stop stop-color="#F0F4FF"/>
<stop offset="1" stop-color="#F0F4FF"/>
</linearGradient>
</defs>
</svg>
