<svg width="229" height="229" viewBox="0 0 229 229" fill="none" xmlns="http://www.w3.org/2000/svg">
<circle cx="114.31" cy="114.31" r="113.31" fill="url(#paint0_linear_5020_83226)" stroke="#DEE0E3" stroke-width="2"/>
<circle cx="114.31" cy="114.31" r="113.31" stroke="#8F959E" stroke-width="2" stroke-dasharray="8 8"/>
<circle cx="114.307" cy="114.311" r="9.94" fill="#8F959E"/>
<path d="M188.254 112.952C189.288 113.018 190.094 113.876 190.094 114.913V114.913C190.094 115.966 189.264 116.832 188.212 116.877L136.609 119.073C133.93 119.187 131.696 117.046 131.696 114.365V114.365C131.696 111.644 133.994 109.488 136.709 109.662L188.254 112.952Z" fill="#8F959E"/>
<path d="M112.99 14.2731C113.035 13.2394 113.887 12.4248 114.921 12.4248V12.4248C115.967 12.4248 116.823 13.2562 116.854 14.3014L119.139 92.1754C119.218 94.8752 117.051 97.1068 114.35 97.1068V97.1068C111.622 97.1068 109.444 94.8312 109.564 92.1052L112.99 14.2731Z" fill="#8F959E"/>
<path d="M42.8141 186.243C42.6299 186.424 42.335 186.422 42.1528 186.24V186.24C41.9701 186.057 41.9691 185.761 42.1504 185.577L100.392 126.475C100.872 125.988 101.656 125.985 102.14 126.468V126.468C102.624 126.953 102.62 127.74 102.13 128.219L42.8141 186.243Z" fill="#8F959E"/>
<defs>
<linearGradient id="paint0_linear_5020_83226" x1="0" y1="0" x2="228.62" y2="228.62" gradientUnits="userSpaceOnUse">
<stop stop-color="#DEE0E3" stop-opacity="0"/>
<stop offset="1" stop-color="#DEE0E3" stop-opacity="0.8"/>
</linearGradient>
</defs>
</svg>
