<svg width="124" height="80" viewBox="0 0 124 80" fill="none" xmlns="http://www.w3.org/2000/svg">
<rect width="124" height="80" rx="6" fill="#F0F4FF"/>
<g clip-path="url(#clip0_4910_82362)">
<path d="M64.1821 43.144L74.9821 37.276C75.3161 37.0678 75.6057 36.7957 75.8342 36.4753C76.0628 36.1549 76.2258 35.7925 76.3139 35.409C76.4019 35.0254 76.4134 34.6282 76.3475 34.2402C76.2817 33.8522 76.1398 33.481 75.9301 33.148C75.5094 32.4739 74.8385 31.9943 74.0646 31.8143C73.2907 31.6343 72.4771 31.7687 71.8021 32.188L61.0021 38.056C60.6671 38.2632 60.3764 38.5346 60.1467 38.8545C59.917 39.1745 59.7528 39.5367 59.6636 39.9203C59.5744 40.304 59.5619 40.7015 59.6269 41.0899C59.6918 41.4784 59.8329 41.8502 60.0421 42.184C60.2493 42.5206 60.5213 42.8127 60.8422 43.0435C61.1631 43.2743 61.5266 43.4391 61.9117 43.5284C62.2967 43.6177 62.6957 43.6297 63.0854 43.5637C63.4751 43.4977 63.8479 43.355 64.1821 43.144Z" fill="#C2D4FF"/>
<path d="M62 10C56.0666 10 50.2664 11.7595 45.3329 15.0559C40.3994 18.3524 36.5543 23.0377 34.2836 28.5195C32.013 34.0013 31.4189 40.0333 32.5765 45.8527C33.734 51.6721 36.5912 57.0176 40.7868 61.2132C44.9824 65.4088 50.3279 68.266 56.1473 69.4235C61.9667 70.5811 67.9987 69.987 73.4805 67.7164C78.9623 65.4457 83.6477 61.6006 86.9441 56.6671C90.2405 51.7336 92 45.9334 92 40C92 32.0435 88.8393 24.4129 83.2132 18.7868C77.5871 13.1607 69.9565 10 62 10ZM62 64C57.2533 64 52.6131 62.5924 48.6663 59.9553C44.7195 57.3181 41.6434 53.5698 39.8269 49.1844C38.0104 44.799 37.5351 39.9734 38.4612 35.3178C39.3872 30.6623 41.673 26.3859 45.0294 23.0294C48.3859 19.673 52.6623 17.3872 57.3178 16.4612C61.9734 15.5351 66.799 16.0104 71.1844 17.8269C75.5698 19.6434 79.3181 22.7195 81.9553 26.6663C84.5924 30.6131 86 35.2532 86 40C86 46.3652 83.4714 52.4697 78.9706 56.9706C74.4697 61.4714 68.3652 64 62 64Z" fill="#C2D4FF"/>
<path d="M52.1819 26.4397C51.591 25.9355 50.8277 25.6801 50.0524 25.7272C49.2771 25.7743 48.5503 26.1203 48.0249 26.6923C47.4995 27.2644 47.2164 28.0179 47.2353 28.7944C47.2541 29.5709 47.5733 30.3098 48.1259 30.8557L60.5699 42.8557C60.8567 43.1391 61.1976 43.3617 61.5724 43.5104C61.9472 43.659 62.348 43.7306 62.7511 43.7208C63.1541 43.711 63.5511 43.6201 63.9182 43.4535C64.2853 43.2869 64.6151 43.048 64.8878 42.751C65.1606 42.4541 65.3706 42.1053 65.5055 41.7253C65.6404 41.3454 65.6973 40.9421 65.6729 40.5397C65.6484 40.1373 65.5431 39.7439 65.3632 39.3831C65.1833 39.0223 64.9325 38.7015 64.6259 38.4397L52.1819 26.4397Z" fill="#336DF4"/>
</g>
<defs>
<clipPath id="clip0_4910_82362">
<rect width="60" height="60" fill="white" transform="translate(32 10)"/>
</clipPath>
</defs>
</svg>
