<svg width="124" height="80" viewBox="0 0 124 80" fill="none" xmlns="http://www.w3.org/2000/svg">
<rect width="124" height="80" rx="6" fill="#F5F6F7"/>
<rect x="31" y="17" width="62" height="46" rx="7" stroke="#DEE0E3" stroke-width="6"/>
<path d="M76.5469 44.1043V35.8957C76.5469 33.2986 77.6637 32 79.8974 32H82.6496C84.8832 32 86 33.2986 86 35.8957V44.1043C86 46.7014 84.8832 48 82.6496 48H79.8974C77.6637 48 76.5469 46.7014 76.5469 44.1043ZM79.4187 44.2899C79.4187 44.7536 79.6182 44.9855 80.017 44.9855H82.5299C82.9288 44.9855 83.1282 44.7536 83.1282 44.2899V35.7101C83.1282 35.2464 82.9288 35.0145 82.5299 35.0145H80.017C79.6182 35.0145 79.4187 35.2464 79.4187 35.7101V44.2899Z" fill="#8F959E"/>
<path d="M65.4141 44.1043V35.8957C65.4141 33.2986 66.5309 32 68.7646 32H71.5167C73.7504 32 74.8672 33.2986 74.8672 35.8957V44.1043C74.8672 46.7014 73.7504 48 71.5167 48H68.7646C66.5309 48 65.4141 46.7014 65.4141 44.1043ZM68.2859 44.2899C68.2859 44.7536 68.4853 44.9855 68.8842 44.9855H71.3971C71.7959 44.9855 71.9954 44.7536 71.9954 44.2899V35.7101C71.9954 35.2464 71.7959 35.0145 71.3971 35.0145H68.8842C68.4853 35.0145 68.2859 35.2464 68.2859 35.7101V44.2899Z" fill="#8F959E"/>
<path d="M61.5234 46.4234C60.9712 46.4234 60.5234 45.9757 60.5234 45.4234V44.1075C60.5234 43.5552 60.9712 43.1075 61.5234 43.1075H62.495C63.0473 43.1075 63.495 43.5552 63.495 44.1075V45.4234C63.495 45.9757 63.0473 46.4234 62.495 46.4234H61.5234ZM61.5234 37.5191C60.9712 37.5191 60.5234 37.0714 60.5234 36.5191V35.2031C60.5234 34.6508 60.9712 34.2031 61.5234 34.2031H62.495C63.0473 34.2031 63.495 34.6508 63.495 35.2031V36.5191C63.495 37.0714 63.0473 37.5191 62.495 37.5191H61.5234Z" fill="#8F959E"/>
<path d="M49.1328 44.1043V35.8957C49.1328 33.2986 50.2496 32 52.4833 32H55.2355C57.4691 32 58.586 33.2986 58.586 35.8957V44.1043C58.586 46.7014 57.4691 48 55.2355 48H52.4833C50.2496 48 49.1328 46.7014 49.1328 44.1043ZM52.0047 44.2899C52.0047 44.7536 52.2041 44.9855 52.603 44.9855H55.1158C55.5147 44.9855 55.7141 44.7536 55.7141 44.2899V35.7101C55.7141 35.2464 55.5147 35.0145 55.1158 35.0145H52.603C52.2041 35.0145 52.0047 35.2464 52.0047 35.7101V44.2899Z" fill="#8F959E"/>
<path d="M38 44.1043V35.8957C38 33.2986 39.1168 32 41.3505 32H44.1027C46.3363 32 47.4532 33.2986 47.4532 35.8957V44.1043C47.4532 46.7014 46.3363 48 44.1027 48H41.3505C39.1168 48 38 46.7014 38 44.1043ZM40.8718 44.2899C40.8718 44.7536 41.0713 44.9855 41.4702 44.9855H43.983C44.3819 44.9855 44.5813 44.7536 44.5813 44.2899V35.7101C44.5813 35.2464 44.3819 35.0145 43.983 35.0145H41.4702C41.0713 35.0145 40.8718 35.2464 40.8718 35.7101V44.2899Z" fill="#8F959E"/>
</svg>
